<svg width="24" height="24" viewBox="0 0 24 24" fill="currentColor" xmlns="http://www.w3.org/2000/svg">
<path fill-rule="evenodd" clip-rule="evenodd" d="M8.02726 6.43817L8.82181 7.23272C10.7438 5.31076 13.7118 5.07239 15.8932 6.5176L20.4109 2L22 3.58909L17.4824 8.10679C18.9276 10.2882 18.6892 13.2562 16.7673 15.1782L17.5618 15.9727L15.9727 17.5618L15.1782 16.7673C13.2562 18.6892 10.2882 18.9276 8.10679 17.4824L3.58909 22L2 20.4109L6.5176 15.8932C5.07239 13.7118 5.31076 10.7438 7.23272 8.82181L6.43817 8.02726L8.02726 6.43817ZM8.82181 10.4109C7.50536 11.7274 7.50536 13.8617 8.82181 15.1782C10.0912 16.4476 12.1212 16.493 13.445 15.3142L13.5891 15.1782L8.82181 10.4109ZM10.4109 8.82181L15.1782 13.5891C16.4946 12.2726 16.4946 10.1383 15.1782 8.82181C13.9088 7.55238 11.8788 7.50704 10.555 8.6858L10.4109 8.82181Z"/>
</svg>
