<svg width="36" height="36" viewBox="0 0 36 36" fill="currentColor" xmlns="http://www.w3.org/2000/svg">
<path fill-rule="evenodd" clip-rule="evenodd" d="M26.505 13.1423C26.1886 13.4583 25.7597 13.6358 25.3125 13.6358C24.8653 13.6358 24.4364 13.4583 24.12 13.1423L19.6875 8.70975V25.3125C19.6875 25.7601 19.5097 26.1893 19.1932 26.5057C18.8768 26.8222 18.4476 27 18 27C17.5524 27 17.1232 26.8222 16.8068 26.5057C16.4903 26.1893 16.3125 25.7601 16.3125 25.3125V8.70975L11.88 13.1423C11.5601 13.4403 11.137 13.6026 10.6998 13.5949C10.2626 13.5872 9.84553 13.4101 9.53635 13.1009C9.22717 12.7917 9.05007 12.3746 9.04236 11.9374C9.03464 11.5002 9.19692 11.0771 9.495 10.7573L16.8075 3.44475L18 2.25L19.1925 3.4425L26.505 10.755C26.6618 10.9117 26.7862 11.0978 26.8711 11.3026C26.956 11.5074 26.9996 11.7269 26.9996 11.9486C26.9996 12.1703 26.956 12.3898 26.8711 12.5947C26.7862 12.7995 26.6618 12.9855 26.505 13.1423ZM5.625 21.9375C5.625 21.4899 5.44721 21.0607 5.13074 20.7443C4.81428 20.4278 4.38505 20.25 3.9375 20.25C3.48995 20.25 3.06072 20.4278 2.74426 20.7443C2.42779 21.0607 2.25 21.4899 2.25 21.9375V29.25C2.25 30.4435 2.72411 31.5881 3.56802 32.432C4.41193 33.2759 5.55653 33.75 6.75 33.75H29.25C30.4435 33.75 31.5881 33.2759 32.432 32.432C33.2759 31.5881 33.75 30.4435 33.75 29.25V21.9375C33.75 21.4899 33.5722 21.0607 33.2557 20.7443C32.9393 20.4278 32.5101 20.25 32.0625 20.25C31.6149 20.25 31.1857 20.4278 30.8693 20.7443C30.5528 21.0607 30.375 21.4899 30.375 21.9375V29.25C30.375 29.5484 30.2565 29.8345 30.0455 30.0455C29.8345 30.2565 29.5484 30.375 29.25 30.375H6.75C6.45163 30.375 6.16548 30.2565 5.95451 30.0455C5.74353 29.8345 5.625 29.5484 5.625 29.25V21.9375Z"/>
</svg>
