<svg width="36" height="36" viewBox="0 0 36 36" fill="currentColor" xmlns="http://www.w3.org/2000/svg">
<path fill-rule="evenodd" clip-rule="evenodd" d="M26.255 15.8577C25.9386 15.5417 25.5097 15.3642 25.0625 15.3642C24.6153 15.3642 24.1864 15.5417 23.87 15.8577L19.4375 20.2902V3.6875C19.4375 3.23995 19.2597 2.81072 18.9432 2.49426C18.6268 2.17779 18.1976 2 17.75 2C17.3024 2 16.8732 2.17779 16.5568 2.49426C16.2403 2.81072 16.0625 3.23995 16.0625 3.6875V20.2902L11.63 15.8577C11.3101 15.5597 10.887 15.3974 10.4498 15.4051C10.0126 15.4128 9.59553 15.5899 9.28635 15.8991C8.97717 16.2083 8.80007 16.6254 8.79236 17.0626C8.78464 17.4998 8.94692 17.9229 9.245 18.2427L16.5575 25.5552L17.75 26.75L18.9425 25.5575L26.255 18.245C26.4118 18.0883 26.5362 17.9022 26.6211 17.6974C26.706 17.4926 26.7496 17.2731 26.7496 17.0514C26.7496 16.8297 26.706 16.6102 26.6211 16.4053C26.5362 16.2005 26.4118 16.0145 26.255 15.8577ZM5.375 21.6875C5.375 21.4659 5.33135 21.2465 5.24655 21.0417C5.16174 20.837 5.03744 20.651 4.88074 20.4943C4.72404 20.3376 4.53802 20.2133 4.33328 20.1285C4.12854 20.0436 3.90911 20 3.6875 20C3.46589 20 3.24646 20.0436 3.04172 20.1285C2.83698 20.2133 2.65096 20.3376 2.49426 20.4943C2.33756 20.651 2.21326 20.837 2.12845 21.0417C2.04365 21.2465 2 21.4659 2 21.6875V29C2 30.1935 2.47411 31.3381 3.31802 32.182C4.16193 33.0259 5.30653 33.5 6.5 33.5H29C30.1935 33.5 31.3381 33.0259 32.182 32.182C33.0259 31.3381 33.5 30.1935 33.5 29V21.6875C33.5 21.2399 33.3222 20.8107 33.0057 20.4943C32.6893 20.1778 32.2601 20 31.8125 20C31.3649 20 30.9357 20.1778 30.6193 20.4943C30.3028 20.8107 30.125 21.2399 30.125 21.6875V29C30.125 29.2984 30.0065 29.5845 29.7955 29.7955C29.5845 30.0065 29.2984 30.125 29 30.125H6.5C6.20163 30.125 5.91548 30.0065 5.70451 29.7955C5.49353 29.5845 5.375 29.2984 5.375 29V21.6875Z"/>
</svg>
