<svg width="24" height="24" viewBox="0 0 24 24" fill="none" xmlns="http://www.w3.org/2000/svg">
<path d="M20.196 1.95867C19.3067 1.53078 18.3322 1.30927 17.3453 1.31067C15.14 1.31067 13.194 2.39933 12 4.06333C10.806 2.39933 8.85999 1.31067 6.65533 1.31067C3.02199 1.31067 0.0766602 4.256 0.0766602 7.88933C0.0766602 8.404 0.141993 8.90267 0.253993 9.38333C0.293993 9.63067 1.30599 11.106 1.30599 11.106L1.83733 13.6233C4.20866 17.7787 8.60733 21.456 12 22.6893C15.6587 21.3593 20.488 17.186 22.682 12.636L20.196 1.95867Z" fill="#DD2E44"/>
<path d="M23.8919 7.078L22.9893 6.522L23.6599 5.96533C23.6079 5.79927 23.5492 5.63536 23.4839 5.474L22.6173 5.25267L22.9839 4.472C22.5672 3.78692 22.0293 3.18333 21.3966 2.69067L20.0426 2.62533L0.818611 9.888L0.509277 10.5553C0.714984 11.27 0.981744 11.9657 1.30661 12.6347L22.7006 12.6447C23.0498 11.9301 23.3319 11.1847 23.5433 10.418L23.0513 9.87267L23.7833 9.30467C23.8899 8.84036 23.9449 8.36571 23.9473 7.88933C23.9451 7.61802 23.9266 7.34709 23.8919 7.078Z" fill="#E6E7E8"/>
<path d="M23.6595 5.96467H20.1788L17.2228 7.078L23.8915 7.07733C23.8466 6.70041 23.7689 6.32812 23.6595 5.96467ZM21.3961 2.69067C21.0249 2.40217 20.6237 2.15452 20.1995 1.952L0.258789 9.46C0.320122 9.824 0.404789 10.1893 0.508789 10.5553L21.3961 2.69067Z" fill="#D1D3D4"/>
<path d="M10.3502 10.4187L23.5428 10.418C23.6362 10.0733 23.7768 9.33133 23.7822 9.30467L13.3075 9.30533L23.4842 5.47333C23.3465 5.12585 23.1792 4.79085 22.9842 4.472L1.30615 12.6347C1.46682 12.968 1.63949 13.3 1.82682 13.6287L10.3502 10.4187Z" fill="#BCBEC0"/>
</svg>
